<svg xmlns="http://www.w3.org/2000/svg" version="1.1" width="1024" height="1024" viewBox="1075 648 752 752">
<defs>
	<linearGradient gradientUnits="userSpaceOnUse" id="Gradient1" x1="595.085" x2="532.24" y1="718.764" y2="709.389">
		<stop class="stop0" offset="0" stop-color="rgb(24,128,228)" stop-opacity="1"></stop>
		<stop class="stop1" offset="1" stop-color="rgb(27,104,230)" stop-opacity="1"></stop>
	</linearGradient>
</defs>
<path d="M 1285.53 648.407 C 1300.63 646.549 1325.3 647.884 1340.95 647.918 L 1438.62 647.913 L 1548.41 647.836 C 1580.46 647.816 1615.8 646.071 1646.84 652.558 C 1678.75 659.311 1708.58 673.597 1733.84 694.226 C 1777.73 730.669 1805.04 783.296 1809.57 840.163 C 1811.09 858.382 1810.45 886.582 1810.48 905.341 L 1810.55 1018.44 L 1810.49 1141.86 C 1810.45 1159.78 1810.63 1177.79 1810.16 1195.7 C 1807.27 1304.71 1725.27 1390.43 1617.38 1399.59 L 1616.12 1399.72 C 1604.92 1400.78 1583.07 1400.15 1571.07 1400.11 L 1490.9 1400.06 L 1356.39 1400.11 C 1325.81 1400.13 1285.63 1401.99 1256.73 1395.87 C 1223.03 1388.78 1191.69 1373.26 1165.63 1350.75 C 1123.42 1314.6 1097.25 1263.21 1092.85 1207.81 C 1091.15 1185.29 1092 1154.71 1091.99 1131.29 L 1092 1003.31 L 1092.06 904.377 C 1092.01 875.511 1090.46 840.516 1096.26 812.749 C 1103.68 777.764 1119.92 745.252 1143.42 718.293 C 1180.23 675.71 1229.78 652.507 1285.53 648.407 z" fill="rgb(9,5,80)" transform="translate(0,0)"></path>
<path d="M 1290.35 841.261 C 1297.79 837.311 1330.26 823.117 1332.26 818.969 L 1328.58 814.382 L 1329.3 812.891 C 1436.43 757.358 1544.83 724.72 1666 753.827 L 1666 757.259 C 1653.68 755.455 1641.24 754.52 1628.79 754.461 C 1567.62 754.073 1503.97 776.505 1459.8 819.708 C 1426.48 852.295 1414.38 892.423 1439.22 934.372 C 1486.09 1013.54 1593 1003.48 1654.64 1065.11 C 1668.24 1078.71 1680.11 1097.27 1679.88 1117.45 C 1677.66 1167.03 1613.32 1207.9 1573.94 1227.82 C 1467.3 1281.76 1338.74 1304.46 1220.19 1304.28 C 1316.64 1225.16 1409.3 1141.54 1497.86 1053.68 C 1445.67 1086.08 1393.69 1125.61 1341.16 1157.62 C 1333.11 1154.19 1322.61 1150.9 1314.18 1148.02 L 1333.92 1133.04 C 1314.52 1127.12 1289.91 1117.65 1270.3 1110.84 C 1279.87 1104.74 1288.6 1099.08 1297.88 1092.54 C 1280.26 1085.49 1260.87 1079.05 1242.89 1072.43 C 1255.52 1065.74 1269.91 1060.23 1283.1 1053.68 C 1266.45 1045.84 1245.68 1040.38 1229.35 1032.12 C 1241.63 1026.18 1260.97 1018.86 1274 1013.37 L 1221.29 992.645 C 1238.03 985.81 1254.88 979.214 1271.81 972.859 C 1257.62 965.986 1236.25 958.156 1220.79 951.496 C 1238.29 944.076 1257.85 937.112 1275.74 930.36 C 1262.22 924.645 1245.02 917.649 1232.22 911.078 C 1249.92 903.315 1269.82 896.232 1288.03 889.096 C 1277.8 883.97 1267.48 879.381 1257.11 874.111 C 1272.85 866.615 1288.8 859.598 1304.97 853.069 L 1290.35 841.261 z" fill="rgb(255,255,255)" transform="translate(0,0)"></path>
<path d="M 1564.4 808.992 C 1609.8 802.94 1651.51 834.82 1657.59 880.213 C 1663.67 925.607 1631.81 967.339 1586.42 973.445 C 1541 979.556 1499.22 947.668 1493.14 902.237 C 1487.05 856.805 1518.96 815.049 1564.4 808.992 z" fill="rgb(255,255,255)" transform="translate(0,0)"></path>
<path d="M 1567.32 822.848 C 1604.88 818.423 1638.98 845.128 1643.68 882.654 C 1648.39 920.181 1621.94 954.475 1584.45 959.458 C 1546.56 964.493 1511.82 937.702 1507.07 899.779 C 1502.32 861.855 1529.37 827.319 1567.32 822.848 z" fill="rgb(9,5,80)" transform="translate(0,0)"></path>
<path d="M 1573.19 835.704 C 1583.62 838.504 1580.82 843.277 1580.93 853.029 C 1581.06 864.811 1580.85 876.667 1580.86 888.456 C 1592.46 894.07 1604.62 899.339 1615.87 905.593 C 1620.52 908.18 1618.28 912.62 1615.37 915.391 L 1614.02 916.733 C 1600.16 912.113 1582.72 901.932 1568.9 896.05 C 1568.92 886.39 1566.57 843.4 1571.1 838.116 C 1571.4 837.767 1571.72 837.435 1572.02 837.088 C 1572.41 836.631 1572.8 836.165 1573.19 835.704 z" fill="rgb(255,255,255)" transform="translate(0,0)"></path>
<path d="M 1666 753.827 C 1671.85 755.578 1677.29 757.507 1683.06 759.289 L 1682.34 760.241 C 1676.73 758.902 1671.47 758.474 1666 757.259 L 1666 753.827 z" fill="rgb(206,208,223)" transform="translate(0,0)"></path>
<path d="M 1683.06 759.289 C 1683.72 759.495 1685.21 759.699 1685.66 760.464 C 1685.63 760.556 1685.6 760.649 1685.57 760.741 C 1684.26 761.178 1683.61 760.743 1682.34 760.241 L 1683.06 759.289 z" fill="rgb(64,64,122)" transform="translate(0,0)"></path>
<path d="M 412.507 650.965 C 429.638 646.878 456.334 647.609 474.512 647.597 L 553.03 647.827 C 617.769 647.919 688.309 646.306 752.651 648.103 C 800.783 645.866 855.123 669.928 890.447 702.198 C 931.469 739.962 955.769 792.504 957.978 848.219 C 958.588 862.688 958.291 882.551 957.948 897.252 C 956.75 902.413 957.073 913.825 956.997 919.463 C 956.799 935.287 956.687 951.113 956.66 966.938 C 955.286 966.479 955.809 966.903 955.07 965.691 L 956.666 966.967 C 952.578 961.52 956.646 960.032 954.101 954.918 L 952.66 954.787 C 949.163 963.306 934.126 965.462 926.038 958.847 C 913.699 958.39 911.118 962.939 901.236 961.189 C 899.02 960.797 898.845 961.089 896.881 962.119 C 895.496 964.032 894.635 965.364 893.413 967.387 C 886.206 971.081 881.822 965.533 877.954 974.873 C 877.549 975.85 858.298 978.6 856.05 978.933 C 846.431 980.361 844.147 995.996 836.366 981.973 C 834.891 985.917 833.897 989.498 831.338 992.796 C 824.961 995.165 825.976 989.284 820.757 992.263 C 817.148 1000.36 823.617 1008.25 808.247 1008.12 C 806.542 1008.1 806.02 1008.36 804.693 1009.33 C 803.866 1016.07 803.288 1014.85 796.342 1020.27 C 789.775 1025.37 783.267 1030.54 776.82 1035.79 L 776.337 1034.66 L 779.549 1030.37 L 778.844 1028.91 C 772.567 1032.94 771.758 1034.67 773.945 1041.52 L 773.178 1042.73 C 770.745 1041.73 768.585 1040.46 766.159 1040.48 C 771.459 1045.31 781.511 1050.93 787.489 1055.61 C 827.61 1087.03 835.119 1129.36 798.98 1168.11 C 762.596 1207.13 714.613 1230.06 666.051 1250.24 C 649.466 1256.95 630.091 1261.84 613.938 1268.39 C 622.611 1268.28 627.781 1266.71 635.719 1263.88 C 635.659 1266.08 635.591 1273.9 634.827 1275.84 C 631.259 1284.93 626.99 1285.25 633.641 1294.69 C 637.793 1300.59 633.055 1302.81 631.328 1307.5 C 629.084 1313.59 637.408 1318.31 631.331 1325.73 C 629.358 1323.19 629.635 1322.79 628.749 1319.56 C 627.06 1324.13 627.328 1329.51 625.931 1333.96 C 621.28 1348.79 624.16 1387.44 636.418 1397.81 C 614.5 1400.02 591.166 1399.63 569.106 1399.69 L 482.805 1399.9 C 470.862 1399.91 450 1399.29 438.56 1400.18 C 438.364 1400.18 438.168 1400.18 437.971 1400.17 C 384.172 1398.48 333.27 1375.4 296.556 1336.04 C 231.84 1266.62 239.214 1194.33 239.812 1107.54 C 240.085 1067.97 238.54 1027.36 240.022 987.898 C 238.974 949.831 240.559 911.23 239.712 873.092 C 239.471 862.267 239.561 849.891 240.396 839.138 C 243.843 794.27 261.721 751.723 291.356 717.859 C 318.906 686.136 370.51 653.946 412.507 650.965 z" fill="rgb(255,255,255)" transform="translate(0,0)"></path>
<path d="M 752.651 648.103 C 800.783 645.866 855.123 669.928 890.447 702.198 C 931.469 739.962 955.769 792.504 957.978 848.219 C 958.588 862.688 958.291 882.551 957.948 897.252 C 956.75 902.413 957.073 913.825 956.997 919.463 C 956.799 935.287 956.687 951.113 956.66 966.938 C 955.286 966.479 955.809 966.903 955.07 965.691 L 956.666 966.967 C 952.578 961.52 956.646 960.032 954.101 954.918 L 952.66 954.787 C 949.163 963.306 934.126 965.462 926.038 958.847 C 913.699 958.39 911.118 962.939 901.236 961.189 C 899.02 960.797 898.845 961.089 896.881 962.119 C 895.496 964.032 894.635 965.364 893.413 967.387 C 886.206 971.081 881.822 965.533 877.954 974.873 C 877.549 975.85 858.298 978.6 856.05 978.933 C 846.431 980.361 844.147 995.996 836.366 981.973 C 834.891 985.917 833.897 989.498 831.338 992.796 C 824.961 995.165 825.976 989.284 820.757 992.263 C 817.148 1000.36 823.617 1008.25 808.247 1008.12 C 806.542 1008.1 806.02 1008.36 804.693 1009.33 C 803.866 1016.07 803.288 1014.85 796.342 1020.27 C 789.775 1025.37 783.267 1030.54 776.82 1035.79 L 776.337 1034.66 L 779.549 1030.37 L 778.844 1028.91 C 772.567 1032.94 771.758 1034.67 773.945 1041.52 L 773.178 1042.73 C 770.745 1041.73 768.585 1040.46 766.159 1040.48 C 747.04 1030.12 727.233 1021.08 706.876 1013.42 C 695.833 1009.31 654.022 994.598 645.02 988.697 L 645.911 986.549 C 640.664 982.908 633.884 979.426 628.295 975.793 C 613.885 966.379 601.132 954.647 590.551 941.072 C 577.035 923.51 587.698 924.351 586.115 905.566 C 585.271 902.401 577.565 885.329 580.335 882.434 C 587.697 874.737 579.174 869.961 578.703 860.43 C 578.586 858.064 583.05 850.398 584.712 847.803 C 591.573 837.085 599.838 827.334 609.288 818.811 C 617.318 811.681 626.292 805.737 634.461 798.781 C 634.576 797.939 634.69 797.097 634.805 796.254 C 636.916 793.835 649.164 786.897 652.549 785.154 C 691.207 765.247 724.826 756.293 768.107 752.987 C 772.245 749.888 788.228 752.925 793.073 750.931 L 793.373 750.069 C 792.961 749.15 783.386 747.019 780.66 745.719 C 773.299 743.576 745.105 742.654 736.567 742.266 C 714.279 732.904 636.752 748.705 611.534 753.457 C 611.795 753.407 590.285 759.037 591.018 758.743 C 587.754 745.567 591.754 728.671 593.299 716.087 C 593.986 710.484 587.93 716.863 591.849 699.836 C 596.541 679.453 604.465 672.001 604.724 651.877 C 612.797 649.719 625.327 651.983 633.429 650.978 C 662.684 647.346 727.506 655.81 752.651 648.103 z" fill="rgb(19,181,221)" transform="translate(0,0)"></path>
<path d="M 780.66 745.719 C 787.846 746.148 832.076 754.995 835.891 758.802 L 835.952 759.099 L 836.083 759.256 C 834.996 760.323 831.819 759.189 830.488 758.852 C 816.632 755.352 801.146 753.787 787.001 753.329 C 780.117 753.107 773.621 753.937 768.107 752.987 C 772.245 749.888 788.228 752.925 793.073 750.931 L 793.373 750.069 C 792.961 749.15 783.386 747.019 780.66 745.719 z" fill="rgb(208,243,242)" transform="translate(0,0)"></path>
<path d="M 710.508 808.957 C 755.952 802.561 797.963 834.251 804.296 879.704 C 810.629 925.156 778.88 967.123 733.418 973.392 C 688.047 979.649 646.181 947.976 639.861 902.614 C 633.541 857.251 665.155 815.341 710.508 808.957 z" fill="rgb(255,255,255)" transform="translate(0,0)"></path>
<path d="M 714.527 822.846 C 752.017 818.823 785.745 845.761 790.111 883.212 C 794.478 920.663 767.851 954.638 730.442 959.348 C 692.543 964.119 658.027 937.068 653.604 899.127 C 649.18 861.187 676.548 826.921 714.527 822.846 z" fill="rgb(19,181,221)" transform="translate(0,0)"></path>
<path d="M 720.166 835.592 C 731.287 838.95 727.366 845.243 727.718 855.913 C 728.059 866.262 727.598 877.061 727.555 887.46 L 728.938 888.246 C 739.531 894.399 751.188 899.043 761.995 904.833 C 765.849 906.897 767.221 910.765 764.241 914.19 C 763.645 914.928 763.048 915.666 762.452 916.404 C 754.274 915.592 736.205 905.631 727.676 901.532 L 715.984 895.952 C 715.929 887.087 713.647 842.513 717.924 837.971 C 718.253 837.622 718.598 837.29 718.927 836.942 C 719.346 836.497 719.753 836.042 720.166 835.592 z" fill="rgb(255,255,255)" transform="translate(0,0)"></path>
<path d="M 240.022 987.898 C 241.185 994.834 241.201 1027.89 241.721 1037.47 C 243.011 1030.4 242.087 1018.12 243.073 1012.43 C 244.895 1001.92 238.952 947.631 244.181 941.973 C 247.645 944.36 257.093 948.184 260.939 947.308 L 260.909 947.36 L 262.357 944.837 C 268.016 947.59 272.82 949.918 279.302 950.326 C 283.019 950.555 286.747 950.171 290.339 949.19 C 296.399 947.553 316.676 938.54 322.93 934.806 C 327.13 932.298 324.975 931.502 331.826 931.703 C 331.649 931.698 337.117 923.878 338.381 923.559 C 352.69 921.21 350.535 917.45 359.225 909.087 C 363.932 908.545 395.392 922.669 401.478 925.727 C 400.749 924.494 400.008 923.268 399.255 922.049 C 405.091 924.336 412.086 927.547 417.723 930.289 C 400.17 936.533 378.358 944.524 361.322 951.873 C 371.914 956.449 384.725 960.351 394.731 965.586 C 400.683 967.957 406.315 970.154 412.108 972.908 C 395.574 979.404 378.803 986.195 362.219 992.482 C 376.955 998.219 402.708 1007.42 416.28 1013.98 C 402.433 1019.64 385.514 1026.11 372.353 1032.61 C 389.915 1039.98 409.643 1046.61 426.453 1053.94 C 412.943 1060.03 398.538 1066.19 385.196 1072.49 C 402.049 1078.59 424.821 1086.13 440.799 1092.96 C 431.636 1099.19 422.425 1105.35 413.168 1111.44 C 434.876 1118.02 455.69 1126.22 477.138 1133.06 L 457.37 1148.28 L 485.499 1157.5 C 492.467 1154.33 527.855 1130.18 536.55 1124.23 C 566.898 1103.49 599.556 1082.9 629.362 1061.71 L 631.014 1064.12 C 591.01 1099.88 552.537 1141.99 511.87 1178.15 C 463.329 1221.31 413.328 1262.3 364.076 1304.61 C 427.868 1302.92 476.256 1299.64 539.962 1286.69 C 555.728 1283.52 571.391 1279.87 586.929 1275.72 C 593.594 1273.94 607.886 1269.45 613.938 1268.39 C 622.611 1268.28 627.781 1266.71 635.719 1263.88 C 635.659 1266.08 635.591 1273.9 634.827 1275.84 C 631.259 1284.93 626.99 1285.25 633.641 1294.69 C 637.793 1300.59 633.055 1302.81 631.328 1307.5 C 629.084 1313.59 637.408 1318.31 631.331 1325.73 C 629.358 1323.19 629.635 1322.79 628.749 1319.56 C 627.06 1324.13 627.328 1329.51 625.931 1333.96 C 621.28 1348.79 624.16 1387.44 636.418 1397.81 C 614.5 1400.02 591.166 1399.63 569.106 1399.69 L 482.805 1399.9 C 470.862 1399.91 450 1399.29 438.56 1400.18 C 438.364 1400.18 438.168 1400.18 437.971 1400.17 C 384.172 1398.48 333.27 1375.4 296.556 1336.04 C 231.84 1266.62 239.214 1194.33 239.812 1107.54 C 240.085 1067.97 238.54 1027.36 240.022 987.898 z" fill="rgb(51,120,222)" transform="translate(0,0)"></path>
<path d="M 399.255 922.049 C 405.091 924.336 412.086 927.547 417.723 930.289 C 400.17 936.533 378.358 944.524 361.322 951.873 C 371.914 956.449 384.725 960.351 394.731 965.586 C 395.993 966.926 397.168 968.334 398.668 969.421 L 398.649 969.693 C 397.84 970.615 387.782 965.773 386.119 964.965 C 363.985 954.222 342.11 954.15 379.954 941.393 C 380.408 941.24 392.776 936.521 393.062 936.157 C 394.475 934.356 410.516 930.248 410.818 929.668 C 410.235 929.02 404.278 928.876 401.478 925.727 C 400.749 924.494 400.008 923.268 399.255 922.049 z" fill="rgb(48,89,210)" transform="translate(0,0)"></path>
<path d="M 412.507 650.965 C 429.638 646.878 456.334 647.609 474.512 647.597 L 553.03 647.827 C 617.769 647.919 688.309 646.306 752.651 648.103 C 727.506 655.81 662.684 647.346 633.429 650.978 C 625.327 651.983 612.797 649.719 604.724 651.877 C 604.465 672.001 596.541 679.453 591.849 699.836 C 587.93 716.863 593.986 710.484 593.299 716.087 C 591.754 728.671 587.754 745.567 591.018 758.743 C 590.285 759.037 611.795 753.407 611.534 753.457 C 636.752 748.705 714.279 732.904 736.567 742.266 C 628.79 745.619 564.2 762.518 468.81 812.332 L 475.876 819.317 C 460.978 825.954 446.387 833.262 432.149 841.218 C 436.81 844.808 442.439 848.92 446.852 852.667 L 422.621 862.315 C 414.541 866.233 406.296 869.744 398.063 873.325 C 409.137 879.165 418.76 883.551 430.197 888.646 C 414.589 894.549 387.97 903.831 373.718 910.964 C 382.177 914.781 390.69 918.477 399.255 922.049 C 400.008 923.268 400.749 924.494 401.478 925.727 C 395.392 922.669 363.932 908.545 359.225 909.087 C 350.535 917.45 352.69 921.21 338.381 923.559 C 337.117 923.878 331.649 931.698 331.826 931.703 C 324.975 931.502 327.13 932.298 322.93 934.806 C 316.676 938.54 296.399 947.553 290.339 949.19 C 286.747 950.171 283.019 950.555 279.302 950.326 C 272.82 949.918 268.016 947.59 262.357 944.837 L 260.909 947.36 L 260.939 947.308 C 257.093 948.184 247.645 944.36 244.181 941.973 C 238.952 947.631 244.895 1001.92 243.073 1012.43 C 242.087 1018.12 243.011 1030.4 241.721 1037.47 C 241.201 1027.89 241.185 994.834 240.022 987.898 C 238.974 949.831 240.559 911.23 239.712 873.092 C 239.471 862.267 239.561 849.891 240.396 839.138 C 243.843 794.27 261.721 751.723 291.356 717.859 C 318.906 686.136 370.51 653.946 412.507 650.965 z" fill="rgb(25,51,237)" transform="translate(0,0)"></path>
<path d="M 412.507 650.965 C 429.638 646.878 456.334 647.609 474.512 647.597 L 553.03 647.827 C 617.769 647.919 688.309 646.306 752.651 648.103 C 727.506 655.81 662.684 647.346 633.429 650.978 C 625.327 651.983 612.797 649.719 604.724 651.877 C 604.465 672.001 596.541 679.453 591.849 699.836 C 587.93 716.863 593.986 710.484 593.299 716.087 C 591.754 728.671 587.754 745.567 591.018 758.743 C 590.285 759.037 611.795 753.407 611.534 753.457 C 636.752 748.705 714.279 732.904 736.567 742.266 C 628.79 745.619 564.2 762.518 468.81 812.332 L 475.876 819.317 C 460.978 825.954 446.387 833.262 432.149 841.218 C 436.81 844.808 442.439 848.92 446.852 852.667 L 422.621 862.315 C 425.011 856.318 433.459 854.415 439.135 852.943 L 439.494 851.373 C 436.247 846.932 431.177 843.753 426.654 840.42 C 431.821 838.072 468.21 819.973 470.13 817.765 C 467.986 815.596 466.32 814.417 465.635 811.491 C 466.06 810.797 507.77 788.257 512.42 786.633 C 535.553 778.551 526.356 783.107 529.1 756.327 C 529.382 753.585 531.909 742.556 532.875 738.112 C 534.679 729.805 532.482 721.309 532.636 712.86 C 535.969 703.569 537.423 689.349 545.891 683.553 C 549.575 681.031 545.542 670.177 545.503 665.964 C 545.455 660.731 547.089 654.651 544.124 650.854 C 537.406 649.549 520.022 650.265 512.519 650.352 L 447.941 650.938 C 436.159 651.06 423.977 652.074 412.507 650.965 z" fill="url(#Gradient1)" transform="translate(0,0)"></path>
<path d="M 645.02 988.697 C 578.892 957.688 539.714 885.044 598.253 825.482 C 609.489 814.051 620.818 804.348 634.805 796.254 C 634.69 797.097 634.576 797.939 634.461 798.781 C 626.292 805.737 617.318 811.681 609.288 818.811 C 599.838 827.334 591.573 837.085 584.712 847.803 C 583.05 850.398 578.586 858.064 578.703 860.43 C 579.174 869.961 587.697 874.737 580.335 882.434 C 577.565 885.329 585.271 902.401 586.115 905.566 C 587.698 924.351 577.035 923.51 590.551 941.072 C 601.132 954.647 613.885 966.379 628.295 975.793 C 633.884 979.426 640.664 982.908 645.911 986.549 L 645.02 988.697 z" fill="rgb(51,120,222)" transform="translate(0,0)"></path>
<path d="M 629.362 1061.71 C 634.063 1058.01 636.428 1056.78 641.611 1053.82 C 638.167 1057.34 634.767 1060.94 631.014 1064.12 L 629.362 1061.71 z" fill="rgb(19,181,221)" transform="translate(0,0)"></path>
<path d="M 766.159 1040.48 C 768.585 1040.46 770.745 1041.73 773.178 1042.73 L 773.945 1041.52 C 771.758 1034.67 772.567 1032.94 778.844 1028.91 L 779.549 1030.37 L 776.337 1034.66 L 776.82 1035.79 C 783.267 1030.54 789.775 1025.37 796.342 1020.27 C 803.288 1014.85 803.866 1016.07 804.693 1009.33 C 806.02 1008.36 806.542 1008.1 808.247 1008.12 C 823.617 1008.25 817.148 1000.36 820.757 992.263 C 825.976 989.284 824.961 995.165 831.338 992.796 C 833.897 989.498 834.891 985.917 836.366 981.973 C 844.147 995.996 846.431 980.361 856.05 978.933 C 858.298 978.6 877.549 975.85 877.954 974.873 C 881.822 965.533 886.206 971.081 893.413 967.387 C 894.635 965.364 895.496 964.032 896.881 962.119 C 898.845 961.089 899.02 960.797 901.236 961.189 C 911.118 962.939 913.699 958.39 926.038 958.847 C 934.126 965.462 949.163 963.306 952.66 954.787 L 954.101 954.918 C 956.646 960.032 952.578 961.52 956.666 966.967 L 955.07 965.691 C 955.809 966.903 955.286 966.479 956.66 966.938 C 956.687 951.113 956.799 935.287 956.997 919.463 C 957.073 913.825 956.75 902.413 957.948 897.252 C 959.086 910.464 958.246 933.388 958.158 947.218 L 957.993 1030.56 L 957.916 1137.82 C 957.917 1167.89 959.375 1206.17 953.275 1234.57 C 946.219 1268.82 930.555 1300.71 907.76 1327.23 C 871.955 1369.52 820.711 1395.71 765.464 1399.96 C 744.203 1401.7 712.082 1400.74 689.911 1400.72 L 563.205 1400.84 L 480.981 1400.86 C 471.172 1400.86 447.069 1401.38 438.56 1400.18 C 450 1399.29 470.862 1399.91 482.805 1399.9 L 569.106 1399.69 C 591.166 1399.63 614.5 1400.02 636.418 1397.81 C 624.16 1387.44 621.28 1348.79 625.931 1333.96 C 627.328 1329.51 627.06 1324.13 628.749 1319.56 C 629.635 1322.79 629.358 1323.19 631.331 1325.73 C 637.408 1318.31 629.084 1313.59 631.328 1307.5 C 633.055 1302.81 637.793 1300.59 633.641 1294.69 C 626.99 1285.25 631.259 1284.93 634.827 1275.84 C 635.591 1273.9 635.659 1266.08 635.719 1263.88 C 627.781 1266.71 622.611 1268.28 613.938 1268.39 C 630.091 1261.84 649.466 1256.95 666.051 1250.24 C 714.613 1230.06 762.596 1207.13 798.98 1168.11 C 835.119 1129.36 827.61 1087.03 787.489 1055.61 C 781.511 1050.93 771.459 1045.31 766.159 1040.48 z" fill="rgb(90,217,220)" transform="translate(0,0)"></path>
<metadata><recraft-signature>{"signed_by": "recraft", "signature_b64": "lBez7DPW9GsqFa4SYl8XKPOD9hUtzLy+kLFw7zpvHYcsvgs1KxZdr2/rNadBdi1k7BJh9AHSy4qcWdZqJIetBg==", "signing_algo": "Ed25519", "generation_timestamp": 1772404489, "identifier": "8af0e65b-a15c-4829-b084-5c962bfe983f"}</recraft-signature></metadata></svg>
